<?xml version="1.0" encoding="utf-8"?>
<svg version="1.1" xmlns:xlink="http://www.w3.org/1999/xlink" width="30px" height="30px" xmlns="http://www.w3.org/2000/svg">
  <g transform="matrix(1 0 0 1 -964 -801 )">
    <path d="M 979 802  C 986.84 802  993 808.16  993 816  C 993 823.84  986.84 830  979 830  C 971.16 830  965 823.84  965 816  C 965 808.16  971.16 802  979 802  Z " fill-rule="nonzero" fill="#ffffff" stroke="none" fill-opacity="0" />
    <path d="M 979 802  C 986.84 802  993 808.16  993 816  C 993 823.84  986.84 830  979 830  C 971.16 830  965 823.84  965 816  C 965 808.16  971.16 802  979 802  Z " stroke-width="2" stroke="#ffffff" fill="none" />
  </g>
</svg>