<?xml version="1.0" encoding="utf-8"?>
<svg version="1.1" xmlns:xlink="http://www.w3.org/1999/xlink" width="20px" height="20px" xmlns="http://www.w3.org/2000/svg">
  <defs>
    <mask fill="white" id="clip435">
      <path d="M 0 10  C 0 15.522847498  4.477152502 20  10 20  C 15.522847498 20  20 15.522847498  20 10  C 20 4.477152502  15.522847498 0  10 0  C 4.477152502 0  0 4.477152502  0 10  Z " fill-rule="evenodd" />
    </mask>
  </defs>
  <g transform="matrix(1 0 0 1 -682 -1312 )">
    <path d="M 0 10  C 0 15.522847498  4.477152502 20  10 20  C 15.522847498 20  20 15.522847498  20 10  C 20 4.477152502  15.522847498 0  10 0  C 4.477152502 0  0 4.477152502  0 10  Z " fill-rule="nonzero" fill="#ffffff" stroke="none" fill-opacity="0" transform="matrix(1 0 0 1 682 1312 )" />
    <path d="M 0 10  C 0 15.522847498  4.477152502 20  10 20  C 15.522847498 20  20 15.522847498  20 10  C 20 4.477152502  15.522847498 0  10 0  C 4.477152502 0  0 4.477152502  0 10  Z " stroke-width="2" stroke="#ffffff" fill="none" transform="matrix(1 0 0 1 682 1312 )" mask="url(#clip435)" />
  </g>
</svg>