<?xml version="1.0" encoding="utf-8"?>
<svg version="1.1" xmlns:xlink="http://www.w3.org/1999/xlink" width="16px" height="16px" xmlns="http://www.w3.org/2000/svg">
  <g transform="matrix(1 0 0 1 -623 -76 )">
    <path d="M 631 76  C 635.48 76  639 79.52  639 84  C 639 88.48  635.48 92  631 92  C 626.52 92  623 88.48  623 84  C 623 79.52  626.52 76  631 76  Z " fill-rule="nonzero" fill="#ffffff" stroke="none" fill-opacity="0" />
    <path d="M 631 76.5  C 635.2 76.5  638.5 79.8  638.5 84  C 638.5 88.2  635.2 91.5  631 91.5  C 626.8 91.5  623.5 88.2  623.5 84  C 623.5 79.8  626.8 76.5  631 76.5  Z " stroke-width="1" stroke="#ffffff" fill="none" />
  </g>
</svg>