<?xml version="1.0" encoding="utf-8"?>
<svg version="1.1" xmlns:xlink="http://www.w3.org/1999/xlink" width="29px" height="29px" xmlns="http://www.w3.org/2000/svg">
  <g transform="matrix(1 0 0 1 -365 -352 )">
    <path d="M 379.5 353  C 387.06 353  393 358.94  393 366.5  C 393 374.06  387.06 380  379.5 380  C 371.94 380  366 374.06  366 366.5  C 366 358.94  371.94 353  379.5 353  Z " fill-rule="nonzero" fill="#1fcab5" stroke="none" />
    <path d="M 379.5 353  C 387.06 353  393 358.94  393 366.5  C 393 374.06  387.06 380  379.5 380  C 371.94 380  366 374.06  366 366.5  C 366 358.94  371.94 353  379.5 353  Z " stroke-width="2" stroke="#ffffff" fill="none" />
  </g>
</svg>